inDegrees=yes
name=ik_S46_A05_T01
DataType=double
version=3
OpenSimVersion=4.3-2021-08-27-4bc7ad9
endheader
time	pelvis_tilt	pelvis_list	pelvis_rotation	pelvis_tx	pelvis_ty	pelvis_tz	hip_flexion_r	hip_adduction_r	hip_rotation_r	knee_angle_r	knee_angle_r_beta	ankle_angle_r	subtalar_angle_r	mtp_angle_r	hip_flexion_l	hip_adduction_l	hip_rotation_l	knee_angle_l	knee_angle_l_beta	ankle_angle_l	subtalar_angle_l	mtp_angle_l	lumbar_extension	lumbar_bending	lumbar_rotation	arm_flex_r	arm_add_r	arm_rot_r	elbow_flex_r	pro_sup_r	wrist_flex_r	wrist_dev_r	arm_flex_l	arm_add_l	arm_rot_l	elbow_flex_l	pro_sup_l	wrist_flex_l	wrist_dev_l
21.61999999999963	-7.349379005769185	-4.742747805791106	29.09586058437623	0	0.9399999999999999	0	42.89760710651216	-10.43787262409587	-10.38626972998059	52.69836984986648	0.9197600643138799	0	0	0	42.89760710651216	-10.43787262409587	-10.38626972998059	52.69836984986648	0.9197600643138799	0	0	0	-7.925977224697458	-3.246838928895731	6.500717281160679	55.09870487048119	-9.206731417880043	-1.495132858161157	67.0174880151818	93.52513322908037	0	0	17.83938824235796	-2.424657155760852	13.37360738168521	54.15279272825789	125.4528617241117	0	0
21.63999999999963	-7.435077107471634	-4.623422013287834	29.04455067883179	0	0.9399999999999999	0	42.89805901521917	-10.43754578928362	-10.38608447146916	52.69870286534522	0.9197658765304439	0	0	0	42.89805901521917	-10.43754578928362	-10.38608447146916	52.69870286534522	0.9197658765304439	0	0	0	-7.94308071246062	-3.10228216390354	6.524569977462124	55.11061293583804	-9.368724404495648	-1.487467088801917	66.82325652982576	93.53633888192392	0	0	17.83927230745504	-2.145735153867334	13.26149155876351	54.07088263269866	125.5044093136993	0	0
21.65999999999963	-7.46995239156396	-4.578659342699821	29.01554489645354	0	0.9399999999999999	0	42.89858058302273	-10.43716711054321	-10.38587009527109	52.69908570564147	0.919772558354123	0	0	0	42.89858058302273	-10.43716711054321	-10.38587009527109	52.69908570564147	0.919772558354123	0	0	0	-7.951856944901919	-3.046864341870828	6.535848535470119	55.1134860592987	-9.384156764447164	-1.605968020237736	66.60931954820454	93.57095668761438	0	0	17.81505596747668	-2.146654454979631	13.24270093662342	54.03136187327658	125.5742149475595	0	0
21.67999999999963	-7.522372920434533	-4.521341122851	28.98538243920872	0	0.9399999999999999	0	42.89939241928764	-10.43657700872535	-10.38553611031189	52.69968053693454	0.9197829401186809	0	0	0	42.89939241928764	-10.43657700872535	-10.38553611031189	52.69968053693454	0.9197829401186809	0	0	0	-7.97009609495532	-2.971781551838048	6.549479909853172	55.16263659623281	-9.388543394954787	-1.731297773791842	66.38608839171485	93.6668273216919	0	0	17.76614765391437	-2.218380084396155	13.24215234588101	54.18918091399315	125.4187416430458	0	0
21.69999999999963	-7.536436923866543	-4.503698198472155	28.9662404234387	0	0.9399999999999999	0	42.89985675948481	-10.43624117909074	-10.38534568384691	52.70002208878855	0.9197889013230997	0	0	0	42.89985675948481	-10.43624117909074	-10.38534568384691	52.70002208878855	0.9197889013230997	0	0	0	-7.973723751851289	-2.950154160676625	6.557263974732568	55.18427953725083	-9.315908855214595	-1.907251183337947	66.27239285411	93.65416443285164	0	0	17.73380185788398	-2.314009229167613	13.24618160979587	54.09252378524094	125.51685241922	0	0
21.71999999999963	-7.600262685505706	-4.434198519602115	28.9468202676126	0	0.9399999999999999	0	42.90005607923171	-10.43609866722518	-10.38526454927505	52.70017018492504	0.9197914860882909	0	0	0	42.90005607923171	-10.43609866722518	-10.38526454927505	52.70017018492504	0.9197914860882909	0	0	0	-7.997034906332897	-2.856796225869191	6.558934728542035	55.25112665171688	-9.251738370597868	-1.908448125335413	66.25208521891274	93.60253719182765	0	0	17.71019563905686	-2.238023737050724	13.24924173667212	54.1052022456551	125.5015470184918	0	0
21.73999999999963	-7.637889651858194	-4.380834142102818	28.94968316369402	0	0.9399999999999999	0	42.90024993716945	-10.43596100697582	-10.38518599927889	52.70031518658266	0.9197940168446371	0	0	0	42.90024993716945	-10.43596100697582	-10.38518599927889	52.70031518658266	0.9197940168446371	0	0	0	-8.00496760776567	-2.790687004743452	6.55942724093542	55.3523074772709	-9.179512549216968	-1.925569499397223	66.22127521097804	93.57726139037311	0	1.616420763446103e-35	17.7077487451463	-2.11740296993589	13.22279939018655	54.11689029970266	125.4874856580926	0	1.616420763446103e-35
21.75999999999962	-7.669283188658431	-4.346267766230226	28.93389630310096	0	0.9399999999999999	0	42.90055238923766	-10.43574390428199	-10.38506256614892	52.70053911322512	0.919797925101831	0	0	0	42.90055238923766	-10.43574390428199	-10.38506256614892	52.70053911322512	0.919797925101831	0	0	0	-8.016432035048233	-2.744027965204891	6.55871496137159	55.49374191395458	-9.099899613258604	-1.934035659674914	66.15719029247589	93.57436695099852	0	0	17.68157198735237	-2.131066640221165	13.26669694466289	54.13185267136408	125.4661049896156	0	0
21.77999999999962	-7.709991047245023	-4.302599197459067	28.94308386745312	0	0.9399999999999999	0	42.90085432318493	-10.43552728481388	-10.38493938048516	52.70076271176695	0.9198018276325887	0	0	0	42.90085432318493	-10.43552728481388	-10.38493938048516	52.70076271176695	0.9198018276325887	0	0	0	-8.031960349651149	-2.684216469235535	6.555309033334198	55.59823640302933	-9.02456429914162	-1.915954975039074	66.09611482894299	93.59230279373028	0	0	17.69400233631016	-2.032508403560601	13.25097099727896	54.1138877033772	125.4738459343426	0	0
21.79999999999962	-7.750728300771089	-4.263232166407288	28.9208403963142	0	0.9399999999999999	0	42.90104857311514	-10.43538930296035	-10.38486064276177	52.70090785079277	0.9198043607864624	0	0	0	42.90104857311514	-10.43538930296035	-10.38486064276177	52.70090785079277	0.9198043607864624	0	0	0	-8.048283063322817	-2.631525043487349	6.570598047623534	55.64864283401839	-9.078617112845055	-1.825459260514395	66.08834156205675	93.6119298894682	0	0	17.65013178431548	-2.108711584558455	13.35139956542452	54.13181439451048	125.4371305588795	0	0
21.81999999999962	-7.794264870563074	-4.212361580368016	28.93959049216884	0	0.9399999999999999	0	42.90140802367245	-10.435131535588	-10.38471401124455	52.70117394292927	0.919809004970358	0	0	0	42.90140802367245	-10.435131535588	-10.38471401124455	52.70117394292927	0.919809004970358	0	0	0	-8.061304789891889	-2.568247044837966	6.591686801192591	55.73236965534972	-9.031091899047087	-1.805735572730764	66.00761101619949	93.80507283273599	0	0	17.63254331171224	-2.059456231770104	13.45711995270612	54.16368798734693	125.3744749773555	0	0
21.83999999999962	-7.794824347283755	-4.218268303891429	28.96367687155072	0	0.9399999999999999	0	42.90189267954315	-10.43478418738165	-10.38451637399621	52.70153285175924	0.9198152691111554	0	0	0	42.90189267954315	-10.43478418738165	-10.38451637399621	52.70153285175924	0.9198152691111554	0	0	0	-8.066642919862355	-2.567630876077567	6.562552743977765	55.78956765301675	-8.691638862022289	-1.894649245675392	65.85912953467773	94.19701413869745	0	0	17.63748571052825	-2.172634028717113	13.51179068601224	54.13457290094971	125.3344944859478	0	0
